<svg xmlns="http://www.w3.org/2000/svg" xmlns:xlink="http://www.w3.org/1999/xlink" width="900" zoomAndPan="magnify" viewBox="0 0 675 149.999998" height="200" preserveAspectRatio="xMidYMid meet" version="1.0"><defs><clipPath id="d520fd3180"><path d="M 317 2 L 674.820312 2 L 674.820312 150 L 317 150 Z M 317 2 " clip-rule="nonzero"/></clipPath><clipPath id="7d5947682b"><path d="M 0 52 L 320.375 52 L 320.375 150 L 0 150 Z M 0 52 " clip-rule="nonzero"/></clipPath></defs><g clip-path="url(#d520fd3180)"><path fill="#c1918e" d="M 317.613281 63.355469 C 317.613281 63.355469 359.285156 106.738281 434.554688 90.035156 C 509.824219 73.335938 534.929688 25.671875 595.15625 8.132812 C 655.382812 -9.402344 674.859375 16.316406 674.859375 16.316406 L 674.859375 202.730469 L 317.613281 202.730469 Z M 317.613281 63.355469 " fill-opacity="1" fill-rule="nonzero"/></g><g clip-path="url(#7d5947682b)"><path fill="#c1918e" d="M -29.703125 112.25 C -29.703125 112.25 11.117188 154.738281 84.851562 138.378906 C 158.585938 122.023438 183.179688 75.34375 242.179688 58.164062 C 301.175781 40.988281 320.253906 66.179688 320.253906 66.179688 L 320.253906 248.757812 L -29.703125 248.757812 Z M -29.703125 112.25 " fill-opacity="1" fill-rule="nonzero"/></g></svg>